<svg xmlns="http://www.w3.org/2000/svg" xml:space="preserve" width="240" height="107" style="shape-rendering:geometricPrecision;text-rendering:geometricPrecision;image-rendering:optimizeQuality;fill-rule:evenodd;clip-rule:evenodd" viewBox="0 0 43.87 19.46"><defs><style>.fil2{fill:#fefefe}.fil0{fill:#fff}</style></defs><g id="Слой_x0020_1"><path class="fil0" d="m21.93.7 1.11.01 1.08.04 1.07.06 1.06.08 1.03.1 1.02.13.99.14.97.17.95.18.92.21.9.22.86.24.84.26.81.28.77.29.74.3.7.32.67.34.63.34.58.36.55.37.51.38.46.4.42.4.37.4.32.42.28.42.22.42.18.43.13.44.08.44.02.44-.02.45-.08.44-.13.43-.18.43-.22.43-.28.42-.32.41-.37.41-.42.4-.46.39-.51.38-.55.37-.58.36-.63.35-.67.33-.7.32-.74.31-.77.29-.81.27-.84.26-.86.24-.9.22-.92.21-.95.19-.97.16-.99.15-1.02.12-1.03.11-1.06.08-1.07.06-1.08.03-1.11.02-1.1-.02-1.08-.03-1.08-.06-1.05-.08-1.04-.11-1.01-.12-.99-.15-.98-.16-.94-.19-.92-.21-.9-.22-.86-.24-.84-.26-.81-.27-.77-.29-.74-.31-.7-.32-.67-.33-.63-.35-.59-.36-.54-.37-.51-.38-.46-.39-.42-.4-.37-.41-.32-.41-.28-.42-.22-.43-.18-.43-.13-.43-.07-.44-.03-.45.03-.44.07-.44.13-.44.18-.43.22-.42.28-.42.32-.42.37-.4.42-.4.46-.4.51-.38.55-.37.58-.36.63-.34.67-.34.7-.32.74-.3.77-.29.81-.28.84-.26.86-.24.9-.22.92-.21.94-.18.98-.17.99-.14 1.01-.13 1.04-.1 1.05-.08 1.08-.06 1.08-.04z"/><path class="fil0" d="M21.93.38c11.9 0 21.56 4.19 21.56 9.35 0 5.16-9.66 9.35-21.56 9.35C10.04 19.08.38 14.89.38 9.73.38 4.57 10.04.38 21.93.38z" style="stroke:#65589c;stroke-width:.76;stroke-miterlimit:22.9256"/><path d="M21.94 18.52C11.1 18.52.99 15.03.99 9.73.99 4.41 11.04.94 21.94.94c10.83 0 20.94 3.5 20.94 8.79 0 5.32-10.05 8.79-20.94 8.79z" style="fill:#65589c;stroke:#fff;stroke-width:.43;stroke-miterlimit:22.9256"/><path class="fil2" d="M29.82 13.89v-2.01h.89c.47 0 .77.19.77.68v1.33h-.42s.01-1.05.01-1.34c-.01-.29-.16-.4-.46-.39h-.45v1.73h-.34zm2.43.9-.44.01v-2.21c.23-.98 1.34-.92 1.92-.35.42.78-.15 1.84-1.26 1.56-.05-.02-.1-.04-.15-.07v-.34c1.07.67 1.88-1.06.56-1.29-.26 0-.65.12-.65.45l.02 2.24zm2.97-2.98c.59 0 1.06.48 1.06 1.07 0 .59-.47 1.08-1.06 1.08-.58 0-1.06-.49-1.06-1.08 0-.59.48-1.07 1.06-1.07zm0 .31c.4 0 .73.34.73.76s-.33.76-.73.76c-.4 0-.73-.34-.73-.76s.33-.76.73-.76zm2.84 2.69h-.33v-.92c-1.39-.03-1.36-1.75-.17-2.03v.29c-.86.24-.84 1.47.16 1.39l-.05-2.58h.38v.93c1.43-.12 1.51 1.89.17 1.98v-.32c.3-.08.63-.27.65-.62.04-.54-.45-.75-.81-.77v2.65z"/><path class="fil2" d="M33.8 11.83c-1.43 0-2.91-1.12-2.91-3.16 0-1.32.67-2.52 1.68-3.06.46-.26 1-.36 1.52-.36.41 0 .82.05 1.2.21 1 .4 1.9 1.48 1.9 3.34v2.9h-1.86V8.99c0-.69-.11-1.33-.67-1.66-.18-.12-.41-.17-.63-.17-.23 0-.45.06-.65.19-.37.24-.63.7-.63 1.22 0 .41.19.89.63 1.16.2.13.43.19.65.19.24 0 .54-.06.81-.15v1.84c-.36.13-.64.22-1.04.22zM8.62 10.8l-.13.27c-.58.76-1.93.55-2.76.58v2.53c6.92.56 7.4-8.87-.01-8.95v2.56c1 .02 2.42-.18 2.99.89l-2.96-.02v2.08l2.87.06zm9.87-5.23 2.42.01-.01 2.53.07.07.08-.09 1.46-2.42c.67-.43 1.62-.29 1.84.55l-.02 5.42-2.4-.02.01-2.52h-.09c-.43.74-.84 1.78-1.44 2.38-.64.64-1.85.2-1.85-.69l-.07-5.22zm7.97 5.94 2.33.01.01-4.05h1.54l-.02-2.01-5.31.01v2h1.49zm2.13 1.21.9-.01v.34h-.9z"/><path class="fil2" d="m11.74 11.57 1.51-4.54c.2-.62.54-1.63 1.81-1.63 1.28 0 1.61 1.01 1.82 1.63l1.5 4.54h-2.35l-.95-4h-.03l-.96 4h-2.35z"/></g></svg>