<svg width="200" height="200" fill="none" xmlns="http://www.w3.org/2000/svg"><g clip-path="url(#a)"><path fill="#005BFF" d="M0 0h200v200H0z"/><mask id="b" style="mask-type:alpha" maskUnits="userSpaceOnUse" x="0" y="0" width="200" height="200"><path fill-rule="evenodd" clip-rule="evenodd" d="M0 0h200v200H0V0Z" fill="#fff"/></mask><g mask="url(#b)" fill-rule="evenodd" clip-rule="evenodd"><path d="m98.499 100.274-2.945-11.408 19.435-13.036 23.245 1.6 3.393 11.15 105.951 113.978-165.717 50.218 16.638-152.502Z" fill="#F91155"/><path d="M21.264 133.703c-7.521 3.109-15.923-1.908-17.083-10.2-.79-5.652 2.316-11.219 7.442-13.338 7.521-3.109 15.923 1.908 17.083 10.199.79 5.653-2.316 11.22-7.442 13.339Zm-8.68-35.302C-1.95 100.75-10.49 116.054-5.184 130.248c3.925 10.505 14.73 16.956 25.486 15.218 14.536-2.348 23.075-17.652 17.77-31.847-3.926-10.504-14.732-16.956-25.488-15.218Zm32.492-8.267c-3.267.875-5.031 4.585-3.43 7.844 1.173 2.391 3.964 3.49 6.498 2.811l14.713-3.942-14.675 36.819c-.481 1.208.613 2.465 1.857 2.132l35.916-9.624c2.534-.679 4.401-3.027 4.222-5.684-.244-3.623-3.626-5.953-6.893-5.077l-17.926 4.803 14.663-36.792c.487-1.22-.618-2.488-1.873-2.152l-33.072 8.862M188.5 51.471c-2.321 1.182-3.391 3.947-2.711 6.485l4.777 17.828-34.862-15.295c-1.216-.533-2.497.582-2.152 1.87l9.862 36.806c.68 2.538 2.989 4.398 5.59 4.261 3.628-.191 5.948-3.624 5.054-6.96l-4.817-17.979 34.862 15.294c1.215.533 2.497-.58 2.151-1.87l-9.897-36.94c-.894-3.336-4.621-5.149-7.857-3.5m-74.87 19.094c-17.46 4.678-28.852 18.785-25.442 31.509 3.409 12.723 20.327 19.245 37.788 14.566 17.46-4.679 28.852-18.786 25.442-31.509-3.409-12.723-20.327-19.245-37.788-14.566Zm2.881 10.752c12.063-3.232 22.815.839 24.368 6.638 1.554 5.8-5.721 14.7-17.784 17.932-12.063 3.233-22.815-.838-24.369-6.637-1.553-5.8 5.722-14.7 17.785-17.933Z" fill="#fff"/></g></g><defs><clipPath id="a"><rect width="200" height="200" rx="42.373" fill="#fff"/></clipPath></defs></svg>