<?xml version="1.0" encoding="UTF-8"?>
<!DOCTYPE svg PUBLIC "-//W3C//DTD SVG 1.1//EN" "http://www.w3.org/Graphics/SVG/1.1/DTD/svg11.dtd">
<!-- Creator: CorelDRAW 2018 (64-Bit) -->
<svg xmlns="http://www.w3.org/2000/svg" xml:space="preserve" width="240px" height="107px" version="1.1" style="shape-rendering:geometricPrecision; text-rendering:geometricPrecision; image-rendering:optimizeQuality; fill-rule:evenodd; clip-rule:evenodd"
viewBox="0 0 43.87 19.46"
 xmlns:xlink="http://www.w3.org/1999/xlink">
 <defs>
  <style type="text/css">
   <![CDATA[
    .str0 {stroke:#65589C;stroke-width:0.76;stroke-miterlimit:22.9256}
    .str1 {stroke:white;stroke-width:0.43;stroke-miterlimit:22.9256}
    .fil2 {fill:#FEFEFE}
    .fil1 {fill:#65589C}
    .fil0 {fill:white}
   ]]>
  </style>
 </defs>
 <g id="Слой_x0020_1">
  <metadata id="CorelCorpID_0Corel-Layer"/>
  <polygon class="fil0" points="21.93,0.7 23.04,0.71 24.12,0.75 25.19,0.81 26.25,0.89 27.28,0.99 28.3,1.12 29.29,1.26 30.26,1.43 31.21,1.61 32.13,1.82 33.03,2.04 33.89,2.28 34.73,2.54 35.54,2.82 36.31,3.11 37.05,3.41 37.75,3.73 38.42,4.07 39.05,4.41 39.63,4.77 40.18,5.14 40.69,5.52 41.15,5.92 41.57,6.32 41.94,6.72 42.26,7.14 42.54,7.56 42.76,7.98 42.94,8.41 43.07,8.85 43.15,9.29 43.17,9.73 43.15,10.18 43.07,10.62 42.94,11.05 42.76,11.48 42.54,11.91 42.26,12.33 41.94,12.74 41.57,13.15 41.15,13.55 40.69,13.94 40.18,14.32 39.63,14.69 39.05,15.05 38.42,15.4 37.75,15.73 37.05,16.05 36.31,16.36 35.54,16.65 34.73,16.92 33.89,17.18 33.03,17.42 32.13,17.64 31.21,17.85 30.26,18.04 29.29,18.2 28.3,18.35 27.28,18.47 26.25,18.58 25.19,18.66 24.12,18.72 23.04,18.75 21.93,18.77 20.83,18.75 19.75,18.72 18.67,18.66 17.62,18.58 16.58,18.47 15.57,18.35 14.58,18.2 13.6,18.04 12.66,17.85 11.74,17.64 10.84,17.42 9.98,17.18 9.14,16.92 8.33,16.65 7.56,16.36 6.82,16.05 6.12,15.73 5.45,15.4 4.82,15.05 4.23,14.69 3.69,14.32 3.18,13.94 2.72,13.55 2.3,13.15 1.93,12.74 1.61,12.33 1.33,11.91 1.11,11.48 0.93,11.05 0.8,10.62 0.73,10.18 0.7,9.73 0.73,9.29 0.8,8.85 0.93,8.41 1.11,7.98 1.33,7.56 1.61,7.14 1.93,6.72 2.3,6.32 2.72,5.92 3.18,5.52 3.69,5.14 4.24,4.77 4.82,4.41 5.45,4.07 6.12,3.73 6.82,3.41 7.56,3.11 8.33,2.82 9.14,2.54 9.98,2.28 10.84,2.04 11.74,1.82 12.66,1.61 13.6,1.43 14.58,1.26 15.57,1.12 16.58,0.99 17.62,0.89 18.67,0.81 19.75,0.75 20.83,0.71 "/>
  <path class="fil0 str0" d="M21.93 0.38c11.9,0 21.56,4.19 21.56,9.35 0,5.16 -9.66,9.35 -21.56,9.35 -11.89,0 -21.55,-4.19 -21.55,-9.35 0,-5.16 9.66,-9.35 21.55,-9.35z"/>
  <path class="fil1 str1" d="M21.94 18.52c-10.84,0 -20.95,-3.49 -20.95,-8.79 0,-5.32 10.05,-8.79 20.95,-8.79 10.83,0 20.94,3.5 20.94,8.79 0,5.32 -10.05,8.79 -20.94,8.79z"/>
  <path class="fil2" d="M29.82 13.89l0 -2.01 0.89 0c0.47,0 0.77,0.19 0.77,0.68l0 1.33 -0.42 0c0,0 0.01,-1.05 0.01,-1.34 -0.01,-0.29 -0.16,-0.4 -0.46,-0.39l-0.45 0 0 1.73 -0.34 0z"/>
  <path class="fil2" d="M32.25 14.79l-0.44 0.01 0 -2.21c0.23,-0.98 1.34,-0.92 1.92,-0.35 0.42,0.78 -0.15,1.84 -1.26,1.56 -0.05,-0.02 -0.1,-0.04 -0.15,-0.07l0 -0.34c1.07,0.67 1.88,-1.06 0.56,-1.29 -0.26,0 -0.65,0.12 -0.65,0.45l0.02 2.24z"/>
  <path class="fil2" d="M35.22 11.81c0.59,0 1.06,0.48 1.06,1.07 0,0.59 -0.47,1.08 -1.06,1.08 -0.58,0 -1.06,-0.49 -1.06,-1.08 0,-0.59 0.48,-1.07 1.06,-1.07zm0 0.31c0.4,0 0.73,0.34 0.73,0.76 0,0.42 -0.33,0.76 -0.73,0.76 -0.4,0 -0.73,-0.34 -0.73,-0.76 0,-0.42 0.33,-0.76 0.73,-0.76z"/>
  <path class="fil2" d="M38.06 14.81l-0.33 0 0 -0.92c-1.39,-0.03 -1.36,-1.75 -0.17,-2.03l0 0.29c-0.86,0.24 -0.84,1.47 0.16,1.39l-0.05 -2.58 0.38 0 0 0.93c1.43,-0.12 1.51,1.89 0.17,1.98l0 -0.32c0.3,-0.08 0.63,-0.27 0.65,-0.62 0.04,-0.54 -0.45,-0.75 -0.81,-0.77l0 2.65z"/>
  <path class="fil2" d="M33.8 11.83c-1.43,0 -2.91,-1.12 -2.91,-3.16 0,-1.32 0.67,-2.52 1.68,-3.06 0.46,-0.26 1,-0.36 1.52,-0.36 0.41,0 0.82,0.05 1.2,0.21 1,0.4 1.9,1.48 1.9,3.34l0 2.9 -1.86 0 0 -2.71c0,-0.69 -0.11,-1.33 -0.67,-1.66 -0.18,-0.12 -0.41,-0.17 -0.63,-0.17 -0.23,0 -0.45,0.06 -0.65,0.19 -0.37,0.24 -0.63,0.7 -0.63,1.22 0,0.41 0.19,0.89 0.63,1.16 0.2,0.13 0.43,0.19 0.65,0.19 0.24,0 0.54,-0.06 0.81,-0.15l0 1.84c-0.36,0.13 -0.64,0.22 -1.04,0.22z"/>
  <path class="fil2" d="M8.62 10.8l-0.13 0.27c-0.58,0.76 -1.93,0.55 -2.76,0.58l0 2.53c6.92,0.56 7.4,-8.87 -0.01,-8.95l0 2.56c1,0.02 2.42,-0.18 2.99,0.89l-2.96 -0.02 0 2.08 2.87 0.06z"/>
  <path class="fil2" d="M18.49 5.57l2.42 0.01 -0.01 2.53 0.07 0.07 0.08 -0.09 1.46 -2.42c0.67,-0.43 1.62,-0.29 1.84,0.55l-0.02 5.42 -2.4 -0.02 0.01 -2.52 -0.09 0c-0.43,0.74 -0.84,1.78 -1.44,2.38 -0.64,0.64 -1.85,0.2 -1.85,-0.69l-0.07 -5.22z"/>
  <polygon class="fil2" points="26.46,11.51 28.79,11.52 28.8,7.47 30.34,7.47 30.32,5.46 25.01,5.47 25.01,7.47 26.5,7.47 "/>
  <polygon class="fil2" points="28.59,12.72 29.49,12.71 29.49,13.05 28.59,13.05 "/>
  <path class="fil2" d="M11.74 11.57l1.51 -4.54c0.2,-0.62 0.54,-1.63 1.81,-1.63 1.28,0 1.61,1.01 1.82,1.63l1.5 4.54 -2.35 0 -0.95 -4 -0.03 0 -0.96 4 -2.35 0z"/>
 </g>
</svg>
