<svg id="Слой_1" data-name="Слой 1" xmlns="http://www.w3.org/2000/svg" xmlns:xlink="http://www.w3.org/1999/xlink" viewBox="0 0 144.03 144.19"><defs><style>.cls-1,.cls-2,.cls-3{fill-rule:evenodd;}.cls-1{fill:url(#GradientFill_1);}.cls-3{fill:#fff;}</style><linearGradient id="GradientFill_1" x1="240.05" y1="477.28" x2="353.91" y2="365.53" gradientUnits="userSpaceOnUse"><stop offset="0" stop-color="#a92284"/><stop offset="1" stop-color="#53237d"/></linearGradient></defs><path class="cls-1" d="M369.45,454.51v-67.1a38.54,38.54,0,0,0-38.54-38.55H264a38.55,38.55,0,0,0-38.54,38.55h0v67.1A38.55,38.55,0,0,0,264,493.06h67A38.54,38.54,0,0,0,369.45,454.51Z" transform="translate(-225.42 -348.86)"/><path class="cls-2" d="M268.51,444.62h-9L246.13,397.3h8.18l9.94,37,10.75-37h7.16l10.68,37,9.94-37H311l-13.39,47.32h-9l-10-34.54-10.07,34.54Zm73.61-24.54a12,12,0,0,1,6.62,11,12.65,12.65,0,0,1-4.12,9.67,14.25,14.25,0,0,1-10.07,3.85H314.27V397.3h18.79a13.81,13.81,0,0,1,9.8,3.79,12.2,12.2,0,0,1,4.06,9.32,11.39,11.39,0,0,1-4.8,9.67Zm-9.06-15.48H322V417h11a6.22,6.22,0,0,0,0-12.44Zm-11,32.72h12.51a6.63,6.63,0,0,0,0-13.25H322Z" transform="translate(-225.42 -348.86)"/><path class="cls-3" d="M268.51,444.62h-9L246.13,397.3h8.18l9.94,37,10.75-37h7.16l10.68,37,9.94-37H311l-13.39,47.32h-9l-10-34.54-10.07,34.54Zm73.61-24.54a12,12,0,0,1,6.62,11,12.65,12.65,0,0,1-4.12,9.67,14.25,14.25,0,0,1-10.07,3.85H314.27V397.3h18.79a13.81,13.81,0,0,1,9.8,3.79,12.2,12.2,0,0,1,4.06,9.32,11.39,11.39,0,0,1-4.8,9.67Zm-9.06-15.48H322V417h11a6.22,6.22,0,0,0,0-12.44Zm-11,32.72h12.51a6.63,6.63,0,0,0,0-13.25H322Z" transform="translate(-225.42 -348.86)"/></svg>